<svg width="26" height="24" viewBox="0 0 26 24" fill="none" xmlns="http://www.w3.org/2000/svg">
<g filter="url(#filter0_d_5277_305)">
<path fill-rule="evenodd" clip-rule="evenodd" d="M18.3105 5.26195C18.3758 5.52366 18.611 5.70714 18.881 5.70714H23.5857C24.0539 5.70714 24.5026 5.89298 24.8331 6.22408C25.1642 6.55458 25.35 7.0033 25.35 7.47143V19.2333C25.35 19.7015 25.1642 20.1502 24.8331 20.4807C24.5026 20.8118 24.0539 20.9976 23.5857 20.9976C18.6651 20.9976 7.33491 20.9976 2.41431 20.9976C1.94618 20.9976 1.49747 20.8118 1.16696 20.4807C0.835859 20.1502 0.650024 19.7015 0.650024 19.2333V7.47143C0.650024 7.0033 0.835859 6.55458 1.16696 6.22408C1.49747 5.89298 1.94618 5.70714 2.41431 5.70714H7.11907C7.38901 5.70714 7.62424 5.52366 7.68952 5.26195L8.42053 2.33853C8.61695 1.55342 9.32266 1.00238 10.1319 1.00238H15.8682C16.678 1.00238 17.3831 1.55342 17.5795 2.33853L18.3105 5.26195ZM13 8.05952C10.079 8.05952 7.70717 10.4313 7.70717 13.3524C7.70717 16.2734 10.079 18.6452 13 18.6452C15.9211 18.6452 18.2929 16.2734 18.2929 13.3524C18.2929 10.4313 15.9211 8.05952 13 8.05952ZM13 9.23571C15.2718 9.23571 17.1167 11.0806 17.1167 13.3524C17.1167 15.6242 15.2718 17.469 13 17.469C10.7282 17.469 8.88336 15.6242 8.88336 13.3524C8.88336 11.0806 10.7282 9.23571 13 9.23571Z" fill="#688682"/>
</g>
<defs>
<filter id="filter0_d_5277_305" x="-1.34998" y="0.00238037" width="28.7" height="23.9952" filterUnits="userSpaceOnUse" color-interpolation-filters="sRGB">
<feFlood flood-opacity="0" result="BackgroundImageFix"/>
<feColorMatrix in="SourceAlpha" type="matrix" values="0 0 0 0 0 0 0 0 0 0 0 0 0 0 0 0 0 0 127 0" result="hardAlpha"/>
<feOffset dy="1"/>
<feGaussianBlur stdDeviation="1"/>
<feComposite in2="hardAlpha" operator="out"/>
<feColorMatrix type="matrix" values="0 0 0 0 0 0 0 0 0 0 0 0 0 0 0 0 0 0 0.08 0"/>
<feBlend mode="normal" in2="BackgroundImageFix" result="effect1_dropShadow_5277_305"/>
<feBlend mode="normal" in="SourceGraphic" in2="effect1_dropShadow_5277_305" result="shape"/>
</filter>
</defs>
</svg>
