<svg width="22" height="48" viewBox="0 0 22 48" fill="none" xmlns="http://www.w3.org/2000/svg">
<g clip-path="url(#clip0_5277_213)">
<path d="M-65.2322 -1.64408L-24.8002 -1.42151C-23.4506 -1.41408 -22.1964 -0.693391 -21.267 0.534493C-20.3373 1.76283 -19.7539 3.47785 -19.7644 5.38659L-19.8146 14.5095C-19.8262 16.6186 -19.1816 18.551 -18.1083 19.9692C-17.0345 21.3877 -15.5098 22.3136 -13.7833 22.3231C-12.0569 22.3325 -10.5229 21.4235 -9.43361 20.0169C-8.34471 18.6107 -7.67892 16.6856 -7.66731 14.5764L-7.61709 5.45346C-7.60658 3.54472 -7.00333 1.83623 -6.06018 0.618204C-5.18441 -0.512633 -4.03363 -1.20209 -2.79279 -1.28864L-1.93793 0.243429L-1.79578 0.498122L-1.50379 0.499729C-0.037225 0.507802 1.1188 0.864773 1.90612 1.61813C2.68831 2.36673 3.19216 3.58905 3.18157 5.5129L3.13135 14.6358C3.11974 16.7449 3.76344 18.6773 4.83668 20.0955C5.91044 21.5141 7.43512 22.4399 9.16168 22.4494C10.8882 22.4589 12.4221 21.5499 13.5114 20.1432C14.6003 18.737 15.266 16.8119 15.2777 14.7027L15.3279 5.57977C15.3383 3.68318 15.9464 2.43928 16.8456 1.66326C17.7567 0.876938 19.0372 0.510263 20.4974 0.518302L20.4994 0.518312L171.757 0.761109L171.496 48.1383L20.1704 47.5094L19.9185 47.5002C18.6655 47.4102 17.5093 46.7042 16.6381 45.5534C15.7085 44.3252 15.1241 42.6109 15.1345 40.7023L15.1848 31.5784C15.1963 29.4692 14.5518 27.5369 13.4785 26.1187C12.4047 24.7001 10.8809 23.7744 9.15443 23.7648C7.42786 23.7553 5.89309 24.6642 4.80378 26.071C3.71501 27.4772 3.05011 29.4025 3.03846 31.5115L2.98823 40.6354C2.97738 42.5988 2.63107 44.4054 1.94764 45.6991C1.27913 46.9645 0.321066 47.6929 -0.959897 47.6997L-2.68967 47.3914L-2.73162 47.3833L-2.77459 47.3831C-4.12408 47.3756 -5.37754 46.6547 -6.30684 45.4271C-7.23646 44.1989 -7.82087 42.4846 -7.81043 40.576L-7.76021 31.4521C-7.74864 29.3429 -8.39316 27.4106 -9.46651 25.9924C-10.5402 24.5739 -12.0641 23.6481 -13.7905 23.6385C-15.5171 23.629 -17.0519 24.5379 -18.1412 25.9447C-19.23 27.3509 -19.8958 29.2761 -19.9075 31.3852L-19.9577 40.5091C-19.9683 42.4177 -20.5706 44.1255 -21.5136 45.3434C-22.4565 46.5609 -23.7185 47.2678 -25.0682 47.2604L-65.5002 47.0378L-65.2322 -1.64408Z" fill="#FBB428" stroke="#2A9D8F"/>
</g>
<defs>
<clipPath id="clip0_5277_213">
<rect width="22" height="48" fill="white"/>
</clipPath>
</defs>
</svg>
