<svg width="32" height="36" viewBox="0 0 32 36" fill="none" xmlns="http://www.w3.org/2000/svg">
<g filter="url(#filter0_d_5277_311)">
<path d="M22.6974 0H9.30257V0.0230037C5.27436 0.0230037 2 3.29079 2 7.30265V14.2601C2 14.93 2.54615 15.4746 3.21795 15.4746H13.5641V31.5116C13.5641 31.7801 13.7795 32 14.0538 32H17.9462C18.2154 32 18.4359 31.7852 18.4359 31.5116V15.4746H28.7821C29.4538 15.4746 30 14.93 30 14.2601V7.28218C30 3.26011 26.7308 0 22.6974 0ZM14.1692 13.0507H4.4359V7.30265C4.4359 4.62295 6.61795 2.44702 9.30257 2.44702C11.9872 2.44702 14.1692 4.62295 14.1692 7.30265V13.0507Z" fill="#2A9D8F"/>
</g>
<defs>
<filter id="filter0_d_5277_311" x="0" y="0" width="32" height="36" filterUnits="userSpaceOnUse" color-interpolation-filters="sRGB">
<feFlood flood-opacity="0" result="BackgroundImageFix"/>
<feColorMatrix in="SourceAlpha" type="matrix" values="0 0 0 0 0 0 0 0 0 0 0 0 0 0 0 0 0 0 127 0" result="hardAlpha"/>
<feOffset dy="2"/>
<feGaussianBlur stdDeviation="1"/>
<feComposite in2="hardAlpha" operator="out"/>
<feColorMatrix type="matrix" values="0 0 0 0 0 0 0 0 0 0 0 0 0 0 0 0 0 0 0.1 0"/>
<feBlend mode="normal" in2="BackgroundImageFix" result="effect1_dropShadow_5277_311"/>
<feBlend mode="normal" in="SourceGraphic" in2="effect1_dropShadow_5277_311" result="shape"/>
</filter>
</defs>
</svg>
